External Loads File
version=1
nRows=94
nColumns=13
Range=5.000000e-03-10 seconds
endheader
time 	forceRightX 	forceRightY 	forceRightZ 	pointRightX 	pointRightY 	pointRightZ 	forceLeftX 	forceLeftY 	forceLeftZ 	pointLeftX 	pointLeftY 	pointLeftZ 		
0.005000 2.764479 295.693063 -0.000000 0.325470 0.498256 -0.117607 -11.259795 333.184204 -0.000000 0.173196 0.174216 -0.358405
0.010000 3.004239 296.001557 -0.000000 0.325411 0.498272 -0.117609 -11.343955 333.362429 -0.000000 0.173199 0.174192 -0.358449
0.015000 3.194432 296.288478 -0.000000 0.325351 0.498317 -0.117604 -11.482934 333.493657 -0.000000 0.173246 0.174175 -0.358433
0.020000 2.773777 296.525023 -0.000000 0.325295 0.498339 -0.117588 -12.283528 333.540130 -0.000000 0.173288 0.172477 -0.358441
0.025000 3.594816 296.690310 -0.000000 0.325256 0.498360 -0.117559 -11.662628 333.570827 -0.000000 0.173165 0.174050 -0.359078
0.030000 3.766010 296.826587 -0.000000 0.325200 0.498358 -0.117558 -11.768230 333.512610 -0.000000 0.173162 0.174097 -0.358874
0.035000 3.885529 296.961640 -0.000000 0.325158 0.498362 -0.117564 -11.952138 333.402938 -0.000000 0.173192 0.174055 -0.358871
0.040000 4.020693 297.124150 -0.000000 0.325122 0.498386 -0.117565 -12.149186 333.269037 -0.000000 0.173235 0.174031 -0.358854
0.045000 4.233856 297.323177 -0.000000 0.325097 0.498398 -0.117569 -12.274518 333.142525 -0.000000 0.173255 0.174059 -0.358845
0.050000 4.443868 297.550044 -0.000000 0.325069 0.498393 -0.117573 -12.386198 333.040836 -0.000000 0.173277 0.174024 -0.358853
0.055000 4.589366 297.781767 -0.000000 0.325052 0.498383 -0.117570 -12.521833 332.958251 -0.000000 0.173408 0.174020 -0.358757
0.060000 4.888223 297.978940 -0.000000 0.325047 0.498390 -0.117573 -12.422048 332.874459 -0.000000 0.173304 0.174021 -0.358841
0.065000 5.071135 298.111630 -0.000000 0.325038 0.498372 -0.117565 -12.387264 332.744140 -0.000000 0.173301 0.174041 -0.358841
0.070000 5.218711 298.164215 -0.000000 0.325050 0.498330 -0.117564 -12.333964 332.553355 -0.000000 0.173290 0.174061 -0.358832
0.075000 5.274347 298.143534 -0.000000 0.325057 0.498317 -0.117555 -12.324489 332.311137 -0.000000 0.173276 0.174059 -0.358827
0.080000 5.307319 298.065620 -0.000000 0.325084 0.498299 -0.117548 -12.268050 332.064707 -0.000000 0.173244 0.174114 -0.358823
0.085000 5.268299 297.953385 -0.000000 0.325114 0.498259 -0.117551 -12.213016 331.861697 -0.000000 0.173222 0.174142 -0.358817
0.090000 5.177686 297.826915 -0.000000 0.325148 0.498238 -0.117551 -12.153554 331.719496 -0.000000 0.173191 0.174158 -0.358816
0.095000 5.085641 297.701579 -0.000000 0.325194 0.498185 -0.117548 -12.061605 331.628090 -0.000000 0.173142 0.174173 -0.358816
0.100000 4.939406 297.589735 -0.000000 0.325238 0.498169 -0.117536 -12.012964 331.581281 -0.000000 0.173108 0.174197 -0.358817
0.105000 4.792049 297.489750 -0.000000 0.325295 0.498137 -0.117537 -11.948013 331.598346 -0.000000 0.173055 0.174225 -0.358808
0.110000 4.590190 297.380743 -0.000000 0.325355 0.498103 -0.117540 -11.918341 331.688972 -0.000000 0.173019 0.174237 -0.358801
0.115000 4.368775 297.224355 -0.000000 0.325428 0.498067 -0.117545 -11.884545 331.836657 -0.000000 0.172973 0.174262 -0.358792
0.120000 4.066436 296.987732 -0.000000 0.325486 0.498030 -0.117536 -11.925631 332.001610 -0.000000 0.172983 0.174303 -0.358745
0.125000 3.806639 296.659485 -0.000000 0.325558 0.497999 -0.117526 -11.919129 332.153812 -0.000000 0.172927 0.174334 -0.358738
0.130000 3.537542 296.262281 -0.000000 0.325616 0.497958 -0.117523 -11.942469 332.266162 -0.000000 0.172890 0.174361 -0.358715
0.135000 3.338793 295.839095 -0.000000 0.325684 0.497895 -0.117525 -11.926336 332.331894 -0.000000 0.172831 0.174390 -0.358728
0.140000 3.159829 295.435677 -0.000000 0.325748 0.497877 -0.117531 -11.937075 332.357591 -0.000000 0.172787 0.174410 -0.358719
0.145000 3.028866 295.083984 -0.000000 0.325800 0.497845 -0.117523 -11.941158 332.363754 -0.000000 0.172755 0.174458 -0.358722
0.150000 2.952738 294.804365 -0.000000 0.325854 0.497820 -0.117541 -11.928075 332.373769 -0.000000 0.172706 0.174489 -0.358715
0.155000 2.909798 294.614787 -0.000000 0.325897 0.497793 -0.117536 -11.929628 332.406662 -0.000000 0.172664 0.174496 -0.358717
0.160000 2.918499 294.532803 -0.000000 0.325935 0.497767 -0.117528 -11.941481 332.467812 -0.000000 0.172639 0.174521 -0.358703
0.165000 2.979371 294.562813 -0.000000 0.325967 0.497765 -0.117530 -11.971300 332.545487 -0.000000 0.172611 0.174536 -0.358700
0.170000 3.103303 294.682989 -0.000000 0.325997 0.497743 -0.117534 -11.993882 332.624094 -0.000000 0.172585 0.174560 -0.358707
0.175000 3.231035 294.848574 -0.000000 0.326013 0.497738 -0.117536 -12.045366 332.694037 -0.000000 0.172573 0.174575 -0.358695
0.180000 3.373989 295.003734 -0.000000 0.326035 0.497721 -0.117523 -12.075843 332.759398 -0.000000 0.172558 0.174572 -0.358691
0.185000 3.473599 295.105156 -0.000000 0.326032 0.497732 -0.117537 -12.122196 332.818321 -0.000000 0.172560 0.174580 -0.358697
0.190000 3.555494 295.135297 -0.000000 0.326035 0.497733 -0.117539 -12.143496 332.858599 -0.000000 0.172572 0.174580 -0.358697
0.195000 3.602751 295.092361 -0.000000 0.326016 0.497756 -0.117533 -12.162443 332.857575 -0.000000 0.172581 0.174580 -0.358693
0.200000 3.646342 294.976069 -0.000000 0.326002 0.497739 -0.117546 -12.158855 332.793952 -0.000000 0.172604 0.174564 -0.358698
0.205000 3.675916 294.796696 -0.000000 0.325979 0.497762 -0.117536 -12.168357 332.648119 -0.000000 0.172635 0.174565 -0.358695
0.210000 3.720213 294.578847 -0.000000 0.325950 0.497787 -0.117541 -12.188727 332.406478 -0.000000 0.172654 0.174548 -0.358699
0.215000 3.775103 294.351606 -0.000000 0.325913 0.497793 -0.117545 -12.257064 332.059303 -0.000000 0.172693 0.174528 -0.358707
0.220000 3.837163 294.139435 -0.000000 0.325854 0.497829 -0.117547 -12.403206 331.612093 -0.000000 0.172740 0.174513 -0.358702
0.225000 3.959639 293.964303 -0.000000 0.325811 0.497863 -0.117546 -12.571249 331.100663 -0.000000 0.172782 0.174478 -0.358709
0.230000 4.113134 293.853455 -0.000000 0.325746 0.497890 -0.117549 -12.767262 330.579054 -0.000000 0.172831 0.174437 -0.358723
0.235000 4.298638 293.831696 -0.000000 0.325687 0.497928 -0.117557 -12.945382 330.096883 -0.000000 0.172901 0.174409 -0.358735
0.240000 4.505185 293.905510 -0.000000 0.325623 0.497998 -0.117561 -13.081606 329.675431 -0.000000 0.172948 0.174372 -0.358738
0.245000 4.739436 294.058207 -0.000000 0.325547 0.498050 -0.117553 -13.145995 329.314674 -0.000000 0.172961 0.174344 -0.358777
0.250000 4.916202 294.269401 -0.000000 0.325473 0.498095 -0.117564 -13.216413 329.006989 -0.000000 0.173026 0.174312 -0.358797
0.255000 5.044909 294.527961 -0.000000 0.325394 0.498155 -0.117583 -13.273148 328.749343 -0.000000 0.173090 0.174265 -0.358797
0.260000 5.147168 294.823974 -0.000000 0.325320 0.498195 -0.117579 -13.295371 328.529374 -0.000000 0.173152 0.174233 -0.358791
0.265000 5.183422 295.131713 -0.000000 0.325250 0.498248 -0.117569 -13.333954 328.316827 -0.000000 0.173228 0.174185 -0.358798
0.270000 5.182604 295.407843 -0.000000 0.325173 0.498280 -0.117582 -13.358651 328.084271 -0.000000 0.173294 0.174156 -0.358794
0.275000 5.125812 295.612311 -0.000000 0.325112 0.498328 -0.117585 -13.388812 327.828886 -0.000000 0.173359 0.174098 -0.358798
0.280000 5.039118 295.724424 -0.000000 0.325047 0.498377 -0.117583 -13.396841 327.583996 -0.000000 0.173417 0.174051 -0.358792
0.285000 4.943569 295.750202 -0.000000 0.324988 0.498419 -0.117580 -13.370635 327.391999 -0.000000 0.173489 0.174019 -0.358788
0.290000 4.881321 295.713449 -0.000000 0.324928 0.498457 -0.117570 -13.281048 327.280638 -0.000000 0.173526 0.173972 -0.358788
0.295000 4.835841 295.636531 -0.000000 0.324887 0.498492 -0.117574 -13.156242 327.257427 -0.000000 0.173589 0.173936 -0.358780
0.300000 4.802259 295.522164 -0.000000 0.324841 0.498533 -0.117566 -13.001268 327.314398 -0.000000 0.173645 0.173910 -0.358778
0.305000 4.770290 295.351229 -0.000000 0.324805 0.498550 -0.117564 -12.825726 327.428921 -0.000000 0.173715 0.173893 -0.358757
0.310000 4.761928 295.101792 -0.000000 0.324777 0.498573 -0.117562 -12.608682 327.577361 -0.000000 0.173725 0.173862 -0.358765
0.315000 4.700533 294.779846 -0.000000 0.324744 0.498605 -0.117571 -12.451788 327.730524 -0.000000 0.173771 0.173853 -0.358743
0.320000 4.640821 294.417519 -0.000000 0.324716 0.498618 -0.117566 -12.322239 327.855111 -0.000000 0.173800 0.173841 -0.358757
0.325000 4.565923 294.052133 -0.000000 0.324683 0.498652 -0.117551 -12.259514 327.920576 -0.000000 0.173817 0.173823 -0.358741
0.330000 4.510968 293.706031 -0.000000 0.324670 0.498661 -0.117572 -12.226831 327.927113 -0.000000 0.173835 0.173809 -0.358731
0.335000 4.464885 293.390258 -0.000000 0.324648 0.498665 -0.117553 -12.230778 327.893568 -0.000000 0.173840 0.173809 -0.358736
0.340000 4.437691 293.115172 -0.000000 0.324640 0.498672 -0.117564 -12.254607 327.842398 -0.000000 0.173833 0.173795 -0.358740
0.345000 4.425734 292.893135 -0.000000 0.324638 0.498670 -0.117567 -12.285677 327.797762 -0.000000 0.173830 0.173790 -0.358728
0.350000 4.421610 292.725760 -0.000000 0.324631 0.498667 -0.117559 -12.296266 327.787984 -0.000000 0.173802 0.173790 -0.358759
0.355000 4.364032 292.590316 -0.000000 0.324643 0.498668 -0.117556 -12.312305 327.837995 -0.000000 0.173822 0.173804 -0.358732
0.360000 4.283444 292.449268 -0.000000 0.324646 0.498653 -0.117563 -12.276771 327.956396 -0.000000 0.173788 0.173802 -0.358761
0.365000 4.132842 292.293398 -0.000000 0.324661 0.498642 -0.117576 -12.262735 328.104188 -0.000000 0.173795 0.173812 -0.358737
0.370000 4.001623 292.156197 -0.000000 0.324674 0.498637 -0.117573 -12.225438 328.217954 -0.000000 0.173747 0.173815 -0.358759
0.375000 3.909435 292.085837 -0.000000 0.324692 0.498614 -0.117573 -12.200506 328.242559 -0.000000 0.173702 0.173834 -0.358769
0.380000 3.835650 292.112009 -0.000000 0.324708 0.498600 -0.117579 -12.248700 328.148810 -0.000000 0.173704 0.173864 -0.358773
0.385000 3.862453 292.241051 -0.000000 0.324733 0.498577 -0.117579 -12.287261 327.941569 -0.000000 0.173663 0.173874 -0.358773
0.390000 3.949003 292.463339 -0.000000 0.324759 0.498559 -0.117582 -12.343878 327.658252 -0.000000 0.173629 0.173904 -0.358767
0.395000 4.080794 292.753102 -0.000000 0.324787 0.498532 -0.117586 -12.402488 327.363357 -0.000000 0.173598 0.173926 -0.358782
0.400000 4.272618 293.077914 -0.000000 0.324826 0.498504 -0.117603 -12.418534 327.113343 -0.000000 0.173545 0.173953 -0.358786
0.405000 4.446169 293.409976 -0.000000 0.324846 0.498478 -0.117602 -12.457782 326.930734 -0.000000 0.173514 0.173970 -0.358779
0.410000 4.639942 293.721276 -0.000000 0.324895 0.498442 -0.117602 -12.451618 326.820375 -0.000000 0.173489 0.173978 -0.358788
0.415000 4.823228 293.981887 -0.000000 0.324928 0.498421 -0.117601 -12.404083 326.776916 -0.000000 0.173434 0.174013 -0.358781
0.420000 4.957557 294.166461 -0.000000 0.324978 0.498403 -0.117611 -12.332452 326.798441 -0.000000 0.173394 0.174054 -0.358784
0.425000 5.040621 294.264991 -0.000000 0.325031 0.498371 -0.117604 -12.224297 326.883640 -0.000000 0.173354 0.174116 -0.358785
0.430000 5.039454 294.283206 -0.000000 0.325077 0.498323 -0.117604 -12.118687 327.005485 -0.000000 0.173315 0.174132 -0.358786
0.435000 4.985827 294.227654 -0.000000 0.325138 0.498310 -0.117603 -12.009484 327.105427 -0.000000 0.173273 0.174151 -0.358785
0.440000 4.914871 294.094633 -0.000000 0.325195 0.498272 -0.117604 -11.902418 327.123630 -0.000000 0.173228 0.174185 -0.358785
0.445000 4.824702 293.877849 -0.000000 0.325263 0.498252 -0.117604 -11.830097 327.040815 -0.000000 0.173197 0.174203 -0.358781
0.450000 4.743229 293.582820 -0.000000 0.325320 0.498222 -0.117601 -11.767695 326.883749 -0.000000 0.173163 0.174225 -0.358797
0.455000 4.662294 293.226646 -0.000000 0.325372 0.498198 -0.117595 -11.723150 326.692967 -0.000000 0.173139 0.174239 -0.358799
0.460000 4.606060 292.825244 -0.000000 0.325431 0.498184 -0.117604 -11.672897 326.502032 -0.000000 0.173106 0.174251 -0.358791
0.465000 4.560807 292.389687 -0.000000 0.325486 0.498165 -0.117597 -11.636754 326.327732 -0.000000 0.173075 0.174268 -0.358795
0.470000 4.485518 291.935152 -0.000000 0.325521 0.498164 -0.117598 -11.659582 326.179284 -0.000000 0.173065 0.174285 -0.358797
